<?xml version="1.0" standalone="no"?>
<!DOCTYPE svg PUBLIC "-//W3C//DTD SVG 20010904//EN"
 "http://www.w3.org/TR/2001/REC-SVG-20010904/DTD/svg10.dtd">
<svg version="1.0" xmlns="http://www.w3.org/2000/svg"
 width="483.000000pt" height="483.000000pt" viewBox="0 0 483.000000 483.000000"
 preserveAspectRatio="xMidYMid meet">
<metadata>
Created by potrace 1.14, written by Peter Selinger 2001-2017
</metadata>
<g transform="translate(0.000000,483.000000) scale(0.100000,-0.100000)"
fill="#000000" stroke="none">
<path d="M2269 4716 c-2 -2 -33 -6 -69 -9 -74 -6 -198 -26 -220 -34 -8 -4 -19
-5 -24 -4 -14 3 -109 -20 -122 -30 -6 -5 -13 -7 -16 -4 -5 5 -199 -56 -253
-80 -89 -38 -117 -51 -185 -85 -122 -61 -132 -66 -279 -164 -77 -51 -138 -96
-134 -99 3 -4 0 -7 -8 -7 -15 0 -117 -86 -200 -169 -62 -62 -162 -178 -228
-266 -17 -22 -35 -45 -41 -52 -5 -7 -10 -17 -10 -23 0 -5 -4 -10 -10 -10 -5 0
-10 -6 -10 -14 0 -8 -4 -16 -8 -18 -11 -4 -102 -162 -102 -176 0 -7 -4 -12 -9
-12 -5 0 -14 -15 -22 -32 -7 -18 -27 -64 -46 -102 -18 -38 -30 -72 -27 -77 3
-5 1 -9 -4 -9 -6 0 -13 -12 -18 -27 -9 -35 -9 -35 -18 -55 -4 -9 -9 -22 -10
-30 -2 -7 -11 -39 -20 -72 -10 -32 -20 -66 -21 -75 -2 -9 -4 -17 -5 -18 -3 -3
-3 -5 -14 -58 -9 -43 -11 -51 -26 -135 -22 -124 -31 -421 -17 -550 4 -30 9
-77 12 -105 2 -27 6 -57 8 -65 2 -8 7 -33 11 -55 5 -22 17 -76 28 -120 11 -44
21 -84 22 -90 11 -45 20 -65 28 -65 6 0 8 -6 5 -13 -3 -8 4 -34 15 -58 10 -24
20 -46 20 -49 1 -11 11 -37 33 -87 13 -28 21 -54 17 -57 -3 -3 -1 -6 4 -6 5 0
21 -25 34 -55 13 -30 27 -55 30 -55 4 0 7 -6 7 -12 0 -13 100 -179 113 -188 4
-3 13 -16 20 -30 65 -122 390 -456 532 -545 9 -5 40 -27 70 -47 30 -21 70 -44
88 -52 19 -8 31 -15 26 -16 -5 0 11 -11 35 -24 118 -63 165 -89 174 -96 6 -5
19 -10 30 -12 11 -1 22 -5 25 -8 6 -7 133 -60 152 -64 7 -2 22 -6 33 -10 54
-21 122 -39 127 -34 2 1 12 -4 23 -10 12 -5 41 -13 65 -17 25 -4 49 -9 54 -13
5 -3 28 -6 50 -8 23 -1 41 -3 41 -4 0 -3 21 -6 100 -15 111 -11 149 -14 260
-15 151 -1 235 5 380 26 22 3 54 7 70 9 17 1 30 4 30 5 0 1 11 3 25 5 32 6 64
13 68 15 1 2 11 4 22 5 11 1 21 3 23 4 1 2 13 5 27 8 35 7 42 9 73 21 16 7 35
12 43 12 12 0 55 15 169 60 11 4 64 28 118 54 54 25 102 46 107 46 6 0 10 4
10 9 0 5 9 13 21 16 26 8 123 67 127 78 2 4 8 7 14 7 11 0 81 51 86 63 2 4 9
7 15 7 7 0 26 13 44 28 17 15 46 38 64 52 65 49 252 243 305 315 16 22 39 50
52 62 13 12 23 24 22 27 0 4 18 31 40 61 22 30 40 57 40 60 0 4 11 21 25 39
14 18 25 38 25 44 0 7 5 12 11 12 5 0 8 4 5 9 -4 5 -2 11 2 13 9 3 124 228
116 228 -2 0 3 11 12 25 8 13 13 28 10 34 -3 5 -1 11 4 13 6 2 12 13 13 26 0
12 4 22 7 22 4 0 14 28 24 63 10 34 21 71 24 82 3 11 7 23 8 28 1 4 2 8 4 10
2 2 6 19 14 52 2 11 5 20 6 20 3 0 12 41 14 63 0 12 4 22 7 22 3 0 6 6 7 13 0
6 3 28 7 47 3 19 7 58 9 87 2 28 7 57 11 63 9 14 15 370 7 384 -3 5 -6 25 -7
45 -3 37 -14 120 -20 156 -2 11 -6 31 -9 45 -3 14 -7 36 -9 50 -2 14 -7 34
-10 45 -3 11 -8 31 -11 45 -12 65 -61 226 -86 285 -54 128 -93 210 -104 217
-6 4 -7 8 -3 8 9 0 -43 93 -55 98 -4 2 -8 12 -8 23 0 10 -4 19 -10 19 -5 0
-10 4 -10 10 0 10 -64 104 -87 128 -7 7 -13 18 -13 23 0 5 -8 17 -17 27 -10
10 -31 36 -47 57 -17 22 -39 51 -50 64 -30 35 -237 241 -242 241 -3 0 -32 23
-65 50 -155 129 -429 285 -639 363 -90 33 -245 80 -300 90 -14 3 -36 8 -50 11
-29 7 -65 13 -129 22 -25 3 -57 8 -71 11 -31 6 -425 15 -431 9z"/>
</g>
</svg>
